<?xml version="1.0" standalone="no"?>
<!DOCTYPE svg PUBLIC "-//W3C//DTD SVG 20010904//EN"
 "http://www.w3.org/TR/2001/REC-SVG-20010904/DTD/svg10.dtd">
<svg version="1.0" xmlns="http://www.w3.org/2000/svg"
 width="1024.000000pt" height="1024.000000pt" viewBox="0 0 1024.000000 1024.000000"
 preserveAspectRatio="xMidYMid meet">

<g transform="translate(0.000000,1024.000000) scale(0.100000,-0.100000)"
fill="#000000" stroke="none">
<path d="M2914 7836 c-27 -12 -44 -33 -44 -53 0 -3 12 7 26 22 l26 28 121 -7
c67 -3 133 -8 147 -10 14 -3 43 -7 65 -11 22 -3 51 -8 65 -11 62 -14 156 -27
150 -21 -5 5 -194 42 -265 51 -81 11 -221 26 -240 26 -11 -1 -34 -7 -51 -14z"/>
<path d="M7030 7833 c-697 -94 -1359 -417 -1726 -843 -38 -44 -79 -99 -91
-122 l-23 -41 0 -1369 c0 -1156 2 -1368 14 -1368 7 0 30 21 51 46 54 66 241
232 372 331 285 214 611 381 925 472 220 64 353 90 612 120 127 15 162 22 177
38 19 19 20 46 19 1364 l0 1344 -26 23 c-22 19 -35 22 -112 21 -48 -1 -134 -8
-192 -16z"/>
<path d="M3495 7760 c33 -13 126 -33 131 -27 3 3 -26 12 -65 21 -76 17 -98 19
-66 6z"/>
<path d="M2871 7720 c-7 -84 -6 -239 2 -231 4 4 6 68 4 142 -1 74 -4 114 -6
89z"/>
<path d="M3668 7715 c18 -8 49 -17 70 -19 27 -4 22 -1 -23 14 -70 23 -95 26
-47 5z"/>
<path d="M3774 7679 c-4 -7 -3 -9 4 -5 6 3 41 -5 78 -19 36 -14 71 -25 78 -24
6 0 -16 11 -49 23 -91 36 -103 38 -111 25z"/>
<path d="M4010 7598 c36 -18 79 -38 95 -44 17 -6 39 -15 50 -19 13 -5 17 -5
10 2 -10 9 -166 78 -202 89 -10 2 11 -10 47 -28z"/>
<path d="M4180 7525 c0 -3 36 -23 80 -45 75 -38 119 -64 250 -149 75 -48 231
-175 311 -252 131 -128 225 -241 177 -213 -8 4 -10 3 -5 -2 5 -5 14 -9 20 -9
9 0 13 -338 17 -1378 3 -757 3 -1377 0 -1377 -3 0 -14 12 -25 27 -29 38 -47
56 -170 168 -111 101 -137 122 -261 215 -38 28 -76 57 -84 63 -75 59 -366 215
-515 277 -55 23 -109 45 -120 50 -11 5 -51 18 -90 30 -38 12 -77 24 -85 27 -8
3 -19 7 -25 7 -5 1 -34 7 -63 15 -29 7 -55 11 -58 8 -3 -2 28 -13 68 -22 101
-25 305 -95 418 -145 324 -142 639 -359 903 -622 65 -65 120 -118 123 -118 2
0 3 620 2 1378 -3 1290 -4 1379 -21 1409 -26 48 -237 263 -341 347 -150 122
-506 340 -506 311z"/>
<path d="M2863 6298 c-1 -1248 -4 -1194 55 -1216 15 -5 99 -18 187 -27 88 -9
176 -19 195 -22 19 -3 32 -2 28 2 -4 4 -22 9 -40 11 -18 2 -69 8 -113 14 -44
5 -120 15 -169 21 -103 12 -104 12 -117 46 -6 15 -9 472 -9 1169 0 629 -4
1144 -8 1144 -5 0 -9 -514 -9 -1142z"/>
<path d="M2555 6286 c-103 -50 -208 -128 -311 -230 -144 -145 -223 -272 -279
-446 -25 -76 -28 -101 -29 -230 -1 -80 3 -169 8 -199 l8 -55 -138 141 c-142
143 -235 223 -260 223 -37 0 3 -168 72 -300 60 -116 129 -206 252 -329 104
-104 104 -104 137 -201 71 -210 175 -393 353 -620 l27 -35 -30 19 c-16 11 -73
44 -127 75 -120 68 -236 150 -393 276 -131 105 -183 141 -192 131 -12 -12 36
-140 77 -206 195 -316 585 -604 1026 -756 103 -36 115 -43 204 -122 124 -109
293 -222 449 -300 69 -35 114 -61 99 -58 -15 4 -80 15 -145 26 -148 26 -282
58 -477 115 -170 49 -236 63 -236 48 0 -21 60 -91 106 -125 137 -98 308 -178
508 -238 266 -80 482 -111 791 -115 208 -3 227 -5 335 -34 264 -69 512 -101
785 -101 107 1 242 7 310 16 66 8 233 19 370 24 289 9 488 30 700 71 460 91
867 271 1070 473 67 67 69 70 44 74 -14 2 -125 -29 -245 -68 -120 -39 -277
-87 -349 -105 -132 -35 -363 -85 -387 -85 -7 1 35 25 93 54 247 123 464 272
634 437 92 89 111 102 241 167 245 122 493 304 646 473 137 151 252 332 297
466 22 65 28 133 12 133 -5 0 -47 -42 -93 -92 -135 -151 -307 -319 -408 -400
-119 -94 -245 -184 -234 -166 4 7 22 33 40 58 95 135 189 337 239 515 27 95
31 104 94 171 217 233 342 504 345 744 1 105 -6 145 -29 154 -11 4 -32 -30
-84 -132 -39 -75 -101 -184 -138 -240 l-68 -104 -12 123 c-25 245 -112 440
-276 615 -105 113 -285 229 -343 222 l-25 -3 28 -53 c15 -29 67 -111 115 -182
186 -274 246 -445 235 -669 -9 -195 -69 -314 -242 -479 -126 -121 -297 -233
-520 -342 -336 -164 -582 -242 -1440 -455 -319 -80 -674 -169 -790 -200 -115
-30 -220 -55 -231 -55 -36 0 -537 151 -816 246 -106 36 -220 73 -253 84 l-60
18 202 1 c205 1 393 15 426 33 42 22 -10 55 -139 88 -43 12 -212 48 -374 80
-332 66 -609 126 -647 141 -41 15 -190 115 -284 190 -109 86 -267 252 -342
356 -65 92 -149 245 -176 324 -29 84 -34 154 -17 241 20 101 70 207 190 398
91 145 145 244 161 298 9 31 -7 29 -90 -12z m-325 -1213 c35 -65 82 -148 106
-185 24 -37 51 -82 60 -100 l16 -33 -32 30 c-76 71 -169 232 -204 353 -8 28
-13 52 -11 52 2 0 31 -53 65 -117z m5609 -524 c-113 -211 -414 -645 -511 -735
-37 -36 -119 -65 -328 -118 -142 -36 -424 -86 -410 -73 3 3 66 45 140 95 143
95 255 191 289 246 12 18 21 36 21 40 0 44 -395 -125 -708 -304 -103 -58 -195
-109 -206 -113 -36 -14 -533 24 -711 54 -103 17 -106 21 -30 39 39 10 235 61
436 114 1082 283 1546 452 1884 685 72 49 134 90 138 90 4 1 3 -9 -4 -20z
m-5416 -53 c87 -58 285 -153 417 -201 180 -64 201 -74 324 -154 284 -183 582
-327 871 -417 l90 -29 -50 -6 c-204 -27 -521 -18 -764 21 -151 25 -361 74
-406 96 -47 22 -249 268 -407 494 -47 68 -148 228 -148 236 0 8 8 4 73 -40z
m2335 -1015 c187 -48 485 -105 692 -132 83 -11 91 -14 65 -22 -17 -5 -99 -36
-184 -69 -246 -94 -483 -165 -736 -218 l-130 -28 -147 43 c-234 68 -473 161
-728 284 l-85 40 120 1 c243 1 594 38 850 90 171 34 187 35 283 11z m1942
-138 c-112 -62 -380 -189 -510 -242 -326 -130 -625 -192 -1005 -206 l-150 -5
105 29 c297 82 616 200 855 316 145 71 153 73 245 79 105 8 461 54 469 61 2 3
16 5 30 5 21 0 13 -7 -39 -37z"/>
<path d="M3420 5009 c47 -10 89 -18 95 -16 13 5 -131 37 -159 36 -11 0 17 -9
64 -20z"/>
<path d="M4969 4473 c-13 -16 -12 -17 4 -4 9 7 17 15 17 17 0 8 -8 3 -21 -13z"/>
<path d="M5005 4430 c3 -5 8 -10 11 -10 2 0 4 5 4 10 0 6 -5 10 -11 10 -5 0
-7 -4 -4 -10z"/>
<path d="M4970 4390 c-8 -5 -10 -10 -5 -10 6 0 17 5 25 10 8 5 11 10 5 10 -5
0 -17 -5 -25 -10z"/>
<path d="M4980 4346 c0 -3 9 -10 20 -16 11 -6 20 -8 20 -6 0 3 -9 10 -20 16
-11 6 -20 8 -20 6z"/>
</g>
</svg>
